<svg width="153" height="166" viewBox="0 0 153 166" fill="none" xmlns="http://www.w3.org/2000/svg">
<path d="M11.5586 153.39V151.521H0.837891L0.837891 153.39H11.5586ZM7.19727 157.955V146.568H5.20996V157.955H7.19727Z" fill="#FF7152"/>
<path d="M11.5586 118.39V116.521H0.837891L0.837891 118.39H11.5586ZM7.19727 122.955V111.568H5.20996V122.955H7.19727Z" fill="#E5E5E5"/>
<path d="M11.5586 83.3896V81.5205H0.837891L0.837891 83.3896H11.5586ZM7.19727 87.9551V76.5684H5.20996V87.9551H7.19727Z" fill="#E5E5E5"/>
<path d="M46.5586 153.39V151.521H35.8379V153.39H46.5586ZM42.1973 157.955V146.568H40.21V157.955H42.1973Z" fill="#E5E5E5"/>
<path d="M46.5586 118.39V116.521H35.8379V118.39H46.5586ZM42.1973 122.955V111.568H40.21V122.955H42.1973Z" fill="#E5E5E5"/>
<path d="M46.5586 83.3896V81.5205H35.8379V83.3896H46.5586ZM42.1973 87.9551V76.5684H40.21V87.9551H42.1973Z" fill="#E5E5E5"/>
<path d="M46.5586 48.3896V46.5205H35.8379V48.3896H46.5586ZM42.1973 52.9551V41.5684H40.21V52.9551H42.1973Z" fill="#E5E5E5"/>
<path d="M81.5586 153.39V151.521H70.8379V153.39H81.5586ZM77.1973 157.955V146.568H75.21V157.955H77.1973Z" fill="#E5E5E5"/>
<path d="M81.5586 118.39V116.521H70.8379V118.39H81.5586ZM77.1973 122.955V111.568H75.21V122.955H77.1973Z" fill="#E5E5E5"/>
<path d="M81.5586 83.3896V81.5205H70.8379V83.3896H81.5586ZM77.1973 87.9551V76.5684H75.21V87.9551H77.1973Z" fill="#6246E5"/>
<path d="M81.5586 48.3896V46.5205H70.8379V48.3896H81.5586ZM77.1973 52.9551V41.5684H75.21V52.9551H77.1973Z" fill="#E5E5E5"/>
<path d="M81.5586 13.3896V11.5205H70.8379V13.3896H81.5586ZM77.1973 17.9551V6.56836H75.21V17.9551H77.1973Z" fill="#E5E5E5"/>
<path d="M116.559 153.39V151.521H105.838V153.39H116.559ZM112.197 157.955V146.568H110.21V157.955H112.197Z" fill="#E5E5E5"/>
<path d="M116.559 118.39V116.521H105.838V118.39H116.559ZM112.197 122.955V111.568H110.21V122.955H112.197Z" fill="#E5E5E5"/>
<path d="M116.559 83.3896V81.5205H105.838V83.3896H116.559ZM112.197 87.9551V76.5684H110.21V87.9551H112.197Z" fill="#E5E5E5"/>
<path d="M116.559 48.3896V46.5205H105.838V48.3896H116.559ZM112.197 52.9551V41.5684H110.21V52.9551H112.197Z" fill="#DF6951"/>
<path d="M116.559 13.3896V11.5205H105.838V13.3896H116.559ZM112.197 17.9551V6.56836H110.21V17.9551H112.197Z" fill="#E5E5E5"/>
<path d="M151.559 153.39V151.521H140.838V153.39H151.559ZM147.197 157.955V146.568H145.21V157.955H147.197Z" fill="#E5E5E5"/>
<path d="M151.559 118.39V116.521H140.838V118.39H151.559ZM147.197 122.955V111.568H145.21V122.955H147.197Z" fill="#E5E5E5"/>
<path d="M151.559 83.3896V81.5205H140.838V83.3896H151.559ZM147.197 87.9551V76.5684H145.21V87.9551H147.197Z" fill="#DF6951"/>
<path d="M151.559 48.3896V46.5205H140.838V48.3896H151.559ZM147.197 52.9551V41.5684H145.21V52.9551H147.197Z" fill="#E5E5E5"/>
<path d="M151.559 13.3896V11.5205H140.838V13.3896H151.559ZM147.197 17.9551V6.56836H145.21V17.9551H147.197Z" fill="#E5E5E5"/>
</svg>
